<?xml version="1.0" encoding="UTF-8" standalone="no"?>
<svg width="210mm" height="297mm" viewBox="0 0 9921.25 14031.5"
 xmlns="http://www.w3.org/2000/svg" xmlns:xlink="http://www.w3.org/1999/xlink" version="1.2" baseProfile="full">
<title>hino-14 (2)</title>
<desc>Generated by MuseScore Studio 4.7.5</desc>
<path class="" fill="#ffffff" fill-rule="evenodd" d="M0,0 L9921.25,0 L9921.25,14031.5 L0,14031.5 L0,0 "/>
<polyline class="StaffLines" fill="none" stroke="#000000" stroke-width="5.90" stroke-linejoin="bevel" points="472.441,988.347 1645.89,988.347" />
<polyline class="StaffLines" fill="none" stroke="#000000" stroke-width="5.90" stroke-linejoin="bevel" points="472.441,1062.05 1645.89,1062.05" />
<polyline class="StaffLines" fill="none" stroke="#000000" stroke-width="5.90" stroke-linejoin="bevel" points="472.441,1135.75 1645.89,1135.75" />
<polyline class="StaffLines" fill="none" stroke="#000000" stroke-width="5.90" stroke-linejoin="bevel" points="472.441,1209.45 1645.89,1209.45" />
<polyline class="StaffLines" fill="none" stroke="#000000" stroke-width="5.90" stroke-linejoin="bevel" points="472.441,1283.15 1645.89,1283.15" />
<polyline class="StaffLines" fill="none" stroke="#000000" stroke-width="5.90" stroke-linejoin="bevel" points="472.441,1773.33 1645.89,1773.33" />
<polyline class="StaffLines" fill="none" stroke="#000000" stroke-width="5.90" stroke-linejoin="bevel" points="472.441,1847.03 1645.89,1847.03" />
<polyline class="StaffLines" fill="none" stroke="#000000" stroke-width="5.90" stroke-linejoin="bevel" points="472.441,1920.73 1645.89,1920.73" />
<polyline class="StaffLines" fill="none" stroke="#000000" stroke-width="5.90" stroke-linejoin="bevel" points="472.441,1994.43 1645.89,1994.43" />
<polyline class="StaffLines" fill="none" stroke="#000000" stroke-width="5.90" stroke-linejoin="bevel" points="472.441,2068.13 1645.89,2068.13" />
<path class="Text" d="M473.563,13259.5 C474,13257.4 474.443,13255.7 474.891,13254.2 C475.339,13252.7 476.292,13250.5 477.75,13247.6 C479.208,13244.7 480.846,13242.3 482.664,13240.4 C484.482,13238.5 487.01,13236.8 490.25,13235.3 C493.49,13233.8 497.146,13233.1 501.219,13233.1 C508.135,13233.1 513.966,13235.3 518.711,13239.8 C523.456,13244.3 525.828,13249.9 525.828,13256.5 C525.828,13266.6 520.151,13277.6 508.797,13289.6 L486.469,13313.1 L518.25,13313.1 C521.26,13313.1 523.497,13312.6 524.961,13311.6 C526.424,13310.5 528.396,13308.1 530.875,13304.3 L532.609,13305 L525.297,13322.8 L473.422,13322.8 L473.422,13321.3 L497.094,13296.2 C508.625,13283.9 514.391,13272.4 514.391,13261.6 C514.391,13256 512.661,13251.5 509.203,13248 C505.745,13244.5 501.224,13242.8 495.641,13242.8 C491.026,13242.8 487.323,13244 484.531,13246.6 C481.74,13249.1 479.016,13253.6 476.359,13260.1 L473.563,13259.5 "/>
<path class="MeasureNumber" d="M422.025,772.145 C422.421,770.322 422.816,768.736 423.212,767.387 C423.608,766.039 424.462,764.078 425.775,761.505 C427.087,758.932 428.556,756.794 430.181,755.091 C431.806,753.387 434.066,751.861 436.962,750.512 C439.858,749.164 443.129,748.489 446.775,748.489 C452.962,748.489 458.178,750.507 462.423,754.544 C466.668,758.58 468.79,763.567 468.79,769.505 C468.79,778.525 463.712,788.38 453.556,799.067 L433.572,820.13 L462.009,820.13 C464.707,820.13 466.71,819.671 468.017,818.755 C469.324,817.838 471.092,815.661 473.322,812.223 L474.869,812.833 L468.322,828.817 L421.9,828.817 L421.9,827.442 L443.087,804.973 C453.4,794.025 458.556,783.718 458.556,774.052 C458.556,769.02 457.009,764.95 453.915,761.841 C450.822,758.731 446.775,757.177 441.775,757.177 C437.65,757.177 434.34,758.315 431.845,760.591 C429.35,762.867 426.91,766.916 424.525,772.739 L422.025,772.145 M533.994,801.802 L533.994,808.942 L521.853,808.942 L521.853,828.817 L512.697,828.817 L512.697,808.942 L479.244,808.942 L479.244,801.802 L516.619,748.364 L521.853,748.364 L521.853,801.802 L533.994,801.802 M512.572,801.802 L512.572,760.989 L484.009,801.802 L512.572,801.802 "/>
<polyline class="BarLine" fill="none" stroke="#000000" stroke-width="11.79" stroke-linejoin="bevel" points="478.337,985.399 478.337,1773.33" />
<polyline class="BarLine" fill="none" stroke="#000000" stroke-width="11.79" stroke-linejoin="bevel" points="1556.71,985.399 1556.71,1286.1" />
<polyline class="BarLine" fill="none" stroke="#000000" stroke-width="36.85" stroke-linejoin="bevel" points="1627.46,985.399 1627.46,1286.1" />
<polyline class="BarLine" fill="none" stroke="#000000" stroke-width="11.79" stroke-linejoin="bevel" points="478.337,1770.38 478.337,2071.08" />
<polyline class="BarLine" fill="none" stroke="#000000" stroke-width="11.79" stroke-linejoin="bevel" points="1556.71,1770.38 1556.71,2071.08" />
<polyline class="BarLine" fill="none" stroke="#000000" stroke-width="36.85" stroke-linejoin="bevel" points="1627.46,1770.38 1627.46,2071.08" />
<polyline class="Stem" fill="none" stroke="#000000" stroke-width="9.58" stroke-linejoin="bevel" points="1155.3,1305.85 1155.3,951.496" />
<polyline class="Stem" fill="none" stroke="#000000" stroke-width="9.58" stroke-linejoin="bevel" points="1062.3,1750.93 1062.3,2252.39" />
<path class="Note" transform="matrix(0.891429,0,0,0.891429,1057.51,1320)" d="M24.5,35.0781 C20.5156,35.0781 17.2188,33.7656 14.5625,31.1094 C11.9219,28.4688 10.5938,25.4375 10.5938,22.0156 C10.5938,18.5938 12.2969,14.7344 15.7188,10.4219 C19.1406,6.125 30.8281,-2.53125 50.8125,-15.5625 C70.7813,-28.5781 83.9531,-35.0781 90.3594,-35.0781 C94.1094,-35.0781 97.3594,-33.7656 100.125,-31.1094 C102.875,-28.4688 104.266,-25.4219 104.266,-22.0156 C104.266,-18.5938 102.5,-14.6719 98.9688,-10.2656 C95.4375,-5.84375 83.6875,2.8125 63.7188,15.7188 C43.75,28.625 30.6719,35.0781 24.5,35.0781 M87.375,-45.6719 C62.4375,-45.6719 41.5938,-40.0469 24.8281,-28.7969 C17.0938,-23.2813 11.0313,-15.2813 6.625,-4.79688 C2.20313,5.6875 0,14.4531 0,21.5156 C0,37.625 9.26563,45.6719 27.7969,45.6719 C52.7344,45.6719 73.4844,40.0469 90.0313,28.7969 C97.75,23.2813 103.875,15.4531 108.406,5.29688 C112.922,-4.84375 115.188,-13.7813 115.188,-21.5156 C115.188,-37.625 105.922,-45.6719 87.375,-45.6719"/>
<path class="Note" transform="matrix(0.891429,0,0,0.891429,1057.51,1209.45)" d="M24.5,35.0781 C20.5156,35.0781 17.2188,33.7656 14.5625,31.1094 C11.9219,28.4688 10.5938,25.4375 10.5938,22.0156 C10.5938,18.5938 12.2969,14.7344 15.7188,10.4219 C19.1406,6.125 30.8281,-2.53125 50.8125,-15.5625 C70.7813,-28.5781 83.9531,-35.0781 90.3594,-35.0781 C94.1094,-35.0781 97.3594,-33.7656 100.125,-31.1094 C102.875,-28.4688 104.266,-25.4219 104.266,-22.0156 C104.266,-18.5938 102.5,-14.6719 98.9688,-10.2656 C95.4375,-5.84375 83.6875,2.8125 63.7188,15.7188 C43.75,28.625 30.6719,35.0781 24.5,35.0781 M87.375,-45.6719 C62.4375,-45.6719 41.5938,-40.0469 24.8281,-28.7969 C17.0938,-23.2813 11.0313,-15.2813 6.625,-4.79688 C2.20313,5.6875 0,14.4531 0,21.5156 C0,37.625 9.26563,45.6719 27.7969,45.6719 C52.7344,45.6719 73.4844,40.0469 90.0313,28.7969 C97.75,23.2813 103.875,15.4531 108.406,5.29688 C112.922,-4.84375 115.188,-13.7813 115.188,-21.5156 C115.188,-37.625 105.922,-45.6719 87.375,-45.6719"/>
<path class="Note" transform="matrix(0.891429,0,0,0.891429,1057.51,2068.13)" d="M24.5,35.0781 C20.5156,35.0781 17.2188,33.7656 14.5625,31.1094 C11.9219,28.4688 10.5938,25.4375 10.5938,22.0156 C10.5938,18.5938 12.2969,14.7344 15.7188,10.4219 C19.1406,6.125 30.8281,-2.53125 50.8125,-15.5625 C70.7813,-28.5781 83.9531,-35.0781 90.3594,-35.0781 C94.1094,-35.0781 97.3594,-33.7656 100.125,-31.1094 C102.875,-28.4688 104.266,-25.4219 104.266,-22.0156 C104.266,-18.5938 102.5,-14.6719 98.9688,-10.2656 C95.4375,-5.84375 83.6875,2.8125 63.7188,15.7188 C43.75,28.625 30.6719,35.0781 24.5,35.0781 M87.375,-45.6719 C62.4375,-45.6719 41.5938,-40.0469 24.8281,-28.7969 C17.0938,-23.2813 11.0313,-15.2813 6.625,-4.79688 C2.20313,5.6875 0,14.4531 0,21.5156 C0,37.625 9.26563,45.6719 27.7969,45.6719 C52.7344,45.6719 73.4844,40.0469 90.0313,28.7969 C97.75,23.2813 103.875,15.4531 108.406,5.29688 C112.922,-4.84375 115.188,-13.7813 115.188,-21.5156 C115.188,-37.625 105.922,-45.6719 87.375,-45.6719"/>
<path class="Note" transform="matrix(0.891429,0,0,0.891429,1057.51,1736.48)" d="M24.5,35.0781 C20.5156,35.0781 17.2188,33.7656 14.5625,31.1094 C11.9219,28.4688 10.5938,25.4375 10.5938,22.0156 C10.5938,18.5938 12.2969,14.7344 15.7188,10.4219 C19.1406,6.125 30.8281,-2.53125 50.8125,-15.5625 C70.7813,-28.5781 83.9531,-35.0781 90.3594,-35.0781 C94.1094,-35.0781 97.3594,-33.7656 100.125,-31.1094 C102.875,-28.4688 104.266,-25.4219 104.266,-22.0156 C104.266,-18.5938 102.5,-14.6719 98.9688,-10.2656 C95.4375,-5.84375 83.6875,2.8125 63.7188,15.7188 C43.75,28.625 30.6719,35.0781 24.5,35.0781 M87.375,-45.6719 C62.4375,-45.6719 41.5938,-40.0469 24.8281,-28.7969 C17.0938,-23.2813 11.0313,-15.2813 6.625,-4.79688 C2.20313,5.6875 0,14.4531 0,21.5156 C0,37.625 9.26563,45.6719 27.7969,45.6719 C52.7344,45.6719 73.4844,40.0469 90.0313,28.7969 C97.75,23.2813 103.875,15.4531 108.406,5.29688 C112.922,-4.84375 115.188,-13.7813 115.188,-21.5156 C115.188,-37.625 105.922,-45.6719 87.375,-45.6719"/>
<path class="Clef" transform="matrix(0.891429,0,0,0.891429,535.236,1209.45)" d="M138.688,106.25 L137.688,129.75 C137.688,146.297 132.391,160.703 121.813,172.938 C111.219,185.188 98.5156,191.313 83.7344,191.313 C68.9531,191.313 56.8125,184.359 47.3281,170.469 C50.4219,171.781 53.7344,172.453 57.2656,172.453 C65.6406,172.453 72.875,169.422 78.9375,163.344 C85.0156,157.281 87.9844,149.781 87.875,140.844 C87.7656,131.906 84.7344,124.344 78.7813,118.172 C73.0313,111.547 65.5938,108.234 56.4375,108.234 C47.2813,108.234 39.0625,111.438 31.7813,117.828 C24.5,124.453 20.8594,132.391 20.8594,141.672 C20.8594,159.328 27.0313,174.328 39.3906,186.688 C51.75,199.047 66.6406,205.219 84.0781,205.219 C101.5,205.219 117,197.984 130.578,183.531 C144.141,169.094 151.047,151.703 151.266,131.406 C151.703,119.719 151.922,111.5 151.922,106.75 C151.922,102 151.375,92.6719 150.266,78.7813 C159.313,75.9063 167.156,72.0469 173.766,67.1875 C196.938,50.2031 208.531,27.7969 208.531,0 C208.531,-22.5 200.797,-42.3125 185.359,-59.4063 C169.906,-76.5156 150.047,-85.0625 125.781,-85.0625 C125.109,-85.0625 124.344,-84.9531 123.453,-84.7344 L121.469,-84.7344 C113.969,-115.188 107.906,-137.469 103.266,-151.594 C120.922,-172.109 135.375,-191.969 146.625,-211.172 C156.563,-229.266 161.531,-248.016 161.531,-267.438 C161.531,-286.859 157.281,-307.828 148.781,-330.328 C140.281,-352.844 130.188,-371.047 118.5,-384.953 C117.828,-385.609 116.844,-385.938 115.516,-385.938 C114.188,-385.938 113.094,-385.609 112.203,-384.953 C96.9844,-374.125 85.1719,-360.234 76.7969,-343.234 C68.1875,-326.906 63.875,-308.703 63.875,-288.625 C63.875,-268.547 64.7656,-251.609 66.5313,-237.813 C68.2969,-224.031 73.0313,-204.328 80.7656,-178.734 C78.5469,-176.531 76.1875,-173.875 73.6406,-170.797 C71.1094,-167.703 68.1875,-164.5 64.875,-161.188 C61.5625,-157.891 58.4219,-154.297 55.4375,-150.438 C52.4688,-146.578 50.3594,-143.875 49.1563,-142.328 C47.9375,-140.781 46.4531,-138.797 44.6875,-136.375 C35.1875,-125.563 29.5625,-118.5 27.7969,-115.188 C22.0625,-104.594 17.7031,-97.2031 14.7344,-93.0156 C11.75,-88.8125 8.54688,-80.4844 5.125,-68.0156 C1.70313,-55.5469 0,-44.9063 0,-36.0781 C0,-3.20313 10.4844,25.1563 31.4375,48.9844 C52.4063,72.8125 78,84.7344 108.234,84.7344 C116.625,84.7344 126.219,83.8594 137.031,82.0938 C137.906,89.8125 138.469,95.5469 138.688,99.2969 L138.688,106.25 M148.953,65.5313 C145.188,34.6406 138.797,-3.42188 129.75,-48.6563 C145.859,-47.3281 159.203,-40.5938 169.797,-28.4688 C180.391,-16.3281 185.688,-2.64063 185.688,12.5781 C185.688,22.9531 182.375,33.3281 175.75,43.6875 C169.141,54.0625 160.203,61.3438 148.953,65.5313 M23.8281,-8.9375 C23.8281,-25.9219 28.4688,-44.7969 37.7344,-65.5313 C44.7969,-81.6406 63.1094,-106.25 92.6719,-139.344 C96.6563,-125.656 101.609,-106.797 107.578,-82.75 C92.125,-79.4375 79.5469,-71.7188 69.8438,-59.5781 C60.5781,-47.4375 55.9375,-34.75 55.9375,-21.5156 C55.9375,6.28125 68.5156,27.0313 93.6719,40.7188 C95.4375,41.1563 96.875,41.375 97.9688,41.375 C99.0781,41.375 100.297,40.6094 101.609,39.0625 C102.938,37.5156 103.656,35.75 103.766,33.7656 C103.875,31.7813 103.156,30.3438 101.609,29.4531 C84.1875,19.3125 75.4688,6.07813 75.4688,-10.2656 C75.4688,-19.75 78.9375,-28.1875 85.8906,-35.5781 C92.8438,-42.9688 102.719,-47.3281 115.516,-48.6563 C125.453,-2.98438 132.172,36.1875 135.703,68.8438 C127.109,70.1719 118.266,70.8281 109.234,70.8281 C86.5,70.8281 66.5781,62.8906 49.4844,47 C32.375,31.1094 23.8281,12.4688 23.8281,-8.9375 M131.734,-337.938 C136.141,-324.047 138.359,-309.031 138.359,-292.922 C138.359,-276.813 134.328,-260.547 126.281,-244.109 C118.219,-227.672 106.469,-210.063 91.0156,-191.313 C83.2969,-217.578 79.4375,-239.031 79.4375,-255.688 C79.4375,-272.344 84.125,-288.234 93.5,-303.359 C102.875,-318.469 115.625,-330 131.734,-337.938"/>
<path class="Clef" transform="matrix(0.891429,0,0,0.891429,535.236,1847.03)" d="M184.359,-41.375 C184.359,-36.7344 185.969,-32.7656 189.156,-29.4531 C192.359,-26.1563 196.328,-24.5 201.078,-24.5 C205.828,-24.5 209.797,-26.1563 213,-29.4531 C216.188,-32.7656 217.797,-36.7344 217.797,-41.375 C217.797,-46.0156 216.188,-49.9844 213,-53.2969 C209.797,-56.5938 205.828,-58.25 201.078,-58.25 C196.328,-58.25 192.359,-56.5938 189.156,-53.2969 C185.969,-49.9844 184.359,-46.0156 184.359,-41.375 M184.359,41.375 C184.359,46.0156 185.969,49.9844 189.156,53.2969 C192.359,56.5938 196.328,58.25 201.078,58.25 C205.828,58.25 209.797,56.5938 213,53.2969 C216.188,49.9844 217.797,46.0156 217.797,41.375 C217.797,36.7344 216.188,32.7656 213,29.4531 C209.797,26.1563 205.828,24.5 201.078,24.5 C196.328,24.5 192.359,26.1563 189.156,29.4531 C185.969,32.7656 184.359,36.7344 184.359,41.375 M76.7969,-87.0469 C55.3906,-87.0469 37.2344,-79.1563 22.3438,-63.3906 C7.45313,-47.6094 0,-28.5781 0,-6.28125 C0,3.20313 3.64063,11.5781 10.9219,18.8594 C18.6406,25.4844 27.25,28.7969 36.7344,28.7969 C46.2188,28.7969 54.2813,25.4844 60.9063,18.8594 C67.0781,11.375 70.1719,3.09375 70.1719,-5.95313 C70.1719,-15 66.9063,-22.8438 60.4063,-29.4531 C53.8906,-36.0781 46.1094,-39.3906 37.0781,-39.3906 C33.7656,-39.3906 30,-38.5 25.8125,-36.7344 C29.7969,-48.4375 36.25,-58.3125 45.1875,-66.3594 C54.125,-74.4219 64.6563,-78.4531 76.7969,-78.4531 C94,-78.4531 107.734,-70.7188 118,-55.2813 C128.266,-39.8281 133.391,-21.625 133.391,-0.65625 C133.391,13.4688 130.75,27.6875 125.453,42.0313 C119.266,56.375 112.422,68.4688 104.922,78.2813 C97.4219,88.0938 86.8906,98.7969 73.3125,110.391 C59.75,121.969 46.3906,131.953 33.2656,140.344 C20.1406,148.734 8.04688,156.125 -2.98438,162.516 C-3.85938,163.406 -4.29688,164.391 -4.29688,165.5 C-4.29688,168.359 -2.48438,169.797 1.15625,169.797 C4.79688,169.797 23.5469,160.984 57.4219,143.313 C91.2969,125.672 118.047,105.922 137.688,84.0781 C148.5,72.375 157.219,58.7031 163.844,43.0313 C170.469,27.3594 173.766,11.7031 173.766,-3.96875 C173.766,-29.7969 164.938,-50.2031 147.297,-65.2031 C128.969,-79.7656 105.469,-87.0469 76.7969,-87.0469"/>
<path class="KeySig" transform="matrix(0.891429,0,0,0.891429,802.941,988.347)" d="M75.1406,-72.8125 L65.2031,-68.8438 L65.2031,-117.5 C65.2031,-121.688 63.6094,-123.797 60.4063,-123.797 C57.2031,-123.797 55.6094,-121.688 55.6094,-117.5 L55.6094,-64.875 L24.8281,-52.2969 L24.8281,-101.953 C24.8281,-105.922 23.2188,-107.953 20.0313,-108.063 C16.8281,-108.172 15.2188,-106.141 15.2188,-101.953 L15.2188,-48.3281 L5.95313,-44.6875 C1.98438,-42.9219 0,-40.9219 0,-38.7188 L0,-13.2344 C0,-8.60938 2.3125,-7.28125 6.95313,-9.26563 L15.2188,-12.9063 L15.2188,34.4219 L5.95313,38.0625 C1.98438,39.8281 0,41.8125 0,44.0156 L0,69.5156 C0,74.1406 2.3125,75.4688 6.95313,73.4844 L15.2188,69.8438 L15.2188,119.156 C15.2188,123.359 16.8281,125.453 20.0313,125.453 C23.2188,125.453 24.8281,123.359 24.8281,119.156 L24.8281,65.875 L55.6094,53.625 L55.6094,103.266 C55.6094,107.234 57.2031,109.344 60.4063,109.563 C63.6094,109.563 65.2031,107.469 65.2031,103.266 L65.2031,49.6563 L75.7969,45.6719 C79.9844,44.1406 82.0938,42.0313 82.0938,39.3906 L82.0938,13.5781 C82.0938,9.82813 79.7656,8.60938 75.1406,9.9375 L65.2031,13.9063 L65.2031,-33.0938 L75.7969,-37.0781 C79.9844,-38.6094 82.0938,-40.7188 82.0938,-43.3594 L82.0938,-69.1719 C82.0938,-72.9219 79.7656,-74.1406 75.1406,-72.8125 M24.8281,-16.875 L55.6094,-29.125 L55.6094,17.875 L24.8281,30.4531 L24.8281,-16.875 "/>
<path class="KeySig" transform="matrix(0.891429,0,0,0.891429,802.941,1847.03)" d="M75.1406,-72.8125 L65.2031,-68.8438 L65.2031,-117.5 C65.2031,-121.688 63.6094,-123.797 60.4063,-123.797 C57.2031,-123.797 55.6094,-121.688 55.6094,-117.5 L55.6094,-64.875 L24.8281,-52.2969 L24.8281,-101.953 C24.8281,-105.922 23.2188,-107.953 20.0313,-108.063 C16.8281,-108.172 15.2188,-106.141 15.2188,-101.953 L15.2188,-48.3281 L5.95313,-44.6875 C1.98438,-42.9219 0,-40.9219 0,-38.7188 L0,-13.2344 C0,-8.60938 2.3125,-7.28125 6.95313,-9.26563 L15.2188,-12.9063 L15.2188,34.4219 L5.95313,38.0625 C1.98438,39.8281 0,41.8125 0,44.0156 L0,69.5156 C0,74.1406 2.3125,75.4688 6.95313,73.4844 L15.2188,69.8438 L15.2188,119.156 C15.2188,123.359 16.8281,125.453 20.0313,125.453 C23.2188,125.453 24.8281,123.359 24.8281,119.156 L24.8281,65.875 L55.6094,53.625 L55.6094,103.266 C55.6094,107.234 57.2031,109.344 60.4063,109.563 C63.6094,109.563 65.2031,107.469 65.2031,103.266 L65.2031,49.6563 L75.7969,45.6719 C79.9844,44.1406 82.0938,42.0313 82.0938,39.3906 L82.0938,13.5781 C82.0938,9.82813 79.7656,8.60938 75.1406,9.9375 L65.2031,13.9063 L65.2031,-33.0938 L75.7969,-37.0781 C79.9844,-38.6094 82.0938,-40.7188 82.0938,-43.3594 L82.0938,-69.1719 C82.0938,-72.9219 79.7656,-74.1406 75.1406,-72.8125 M24.8281,-16.875 L55.6094,-29.125 L55.6094,17.875 L24.8281,30.4531 L24.8281,-16.875 "/>
<path class="Lyrics" d="M1055.08,1548.01 L1054.42,1547.51 L1054.42,1536.8 C1049.2,1544.28 1042.25,1548.01 1033.56,1548.01 C1024.54,1548.01 1017.26,1544.78 1011.72,1538.3 C1006.18,1531.83 1003.41,1523.37 1003.41,1512.92 C1003.41,1501.42 1006.72,1491.63 1013.35,1483.54 C1019.97,1475.45 1027.96,1471.41 1037.31,1471.41 C1043.18,1471.41 1048.88,1473.84 1054.42,1478.72 L1054.42,1453.06 C1054.42,1449.67 1053.93,1447.42 1052.95,1446.33 C1051.98,1445.23 1049.97,1444.69 1046.92,1444.69 C1045.4,1444.69 1044.21,1444.74 1043.35,1444.84 L1043.35,1442.23 C1053.23,1439.63 1061.22,1437.24 1067.3,1435.06 L1068.11,1435.39 L1068.11,1527.55 C1068.11,1531.33 1068.57,1533.81 1069.49,1535.01 C1070.42,1536.2 1072.35,1536.8 1075.28,1536.8 C1075.82,1536.8 1077.07,1536.74 1079.03,1536.64 L1079.03,1539.22 L1055.08,1548.01 M1039.91,1539.22 C1044.04,1539.22 1047.5,1538.06 1050.27,1535.75 C1053.04,1533.44 1054.42,1531.36 1054.42,1529.53 L1054.42,1492.44 C1054.42,1488.13 1052.74,1484.37 1049.37,1481.14 C1046,1477.91 1042.14,1476.3 1037.8,1476.3 C1031.6,1476.3 1026.66,1479.04 1022.96,1484.53 C1019.27,1490.02 1017.42,1497.33 1017.42,1506.47 C1017.42,1516.36 1019.49,1524.3 1023.62,1530.26 C1027.75,1536.23 1033.18,1539.22 1039.91,1539.22 M1119.13,1471.41 C1129.56,1471.41 1138.15,1474.88 1144.88,1481.84 C1151.62,1488.8 1154.99,1497.61 1154.99,1508.26 C1154.99,1519.56 1151.51,1529 1144.56,1536.61 C1137.6,1544.21 1129.02,1548.01 1118.81,1548.01 C1108.59,1548.01 1100.09,1544.35 1093.3,1537.01 C1086.51,1529.68 1083.11,1520.53 1083.11,1509.56 C1083.11,1498.36 1086.45,1489.2 1093.13,1482.09 C1099.82,1474.97 1108.48,1471.41 1119.13,1471.41 M1097.78,1501.64 C1097.78,1513.16 1099.9,1522.95 1104.13,1531.02 C1108.37,1539.09 1113.91,1543.12 1120.77,1543.12 C1126.85,1543.12 1131.63,1540.54 1135.1,1535.38 C1138.58,1530.22 1140.31,1523.06 1140.31,1513.91 C1140.31,1502.82 1138.14,1493.78 1133.8,1486.79 C1129.45,1479.79 1123.86,1476.3 1117.02,1476.3 C1111.26,1476.3 1106.61,1478.61 1103.08,1483.24 C1099.55,1487.87 1097.78,1494 1097.78,1501.64 M1206.5,1487.39 C1204.87,1487.39 1202.85,1486.36 1200.46,1484.29 C1198.07,1482.22 1196.5,1481.19 1195.74,1481.19 C1193.57,1481.19 1191.13,1482.78 1188.41,1485.95 C1185.69,1489.13 1184.33,1492.03 1184.33,1494.66 L1184.33,1531.62 C1184.33,1536.33 1185.25,1539.51 1187.1,1541.15 C1188.95,1542.79 1192.65,1543.72 1198.19,1543.95 L1198.19,1546.39 L1159.06,1546.39 L1159.06,1543.95 C1164.28,1542.96 1167.52,1541.87 1168.77,1540.66 C1170.02,1539.46 1170.64,1536.78 1170.64,1532.61 L1170.64,1491.53 C1170.64,1487.93 1170.23,1485.38 1169.42,1483.91 C1168.6,1482.43 1167.16,1481.69 1165.1,1481.69 C1163.36,1481.69 1161.45,1481.91 1159.39,1482.34 L1159.39,1479.8 C1168.09,1477.11 1176.13,1474.31 1183.52,1471.41 L1184.33,1471.73 L1184.33,1486.28 C1188.35,1480.7 1191.77,1476.82 1194.6,1474.66 C1197.43,1472.49 1200.53,1471.41 1203.89,1471.41 C1206.72,1471.41 1208.92,1472.17 1210.49,1473.69 C1212.07,1475.22 1212.86,1477.34 1212.86,1480.05 C1212.86,1482.33 1212.29,1484.12 1211.15,1485.43 C1210.01,1486.74 1208.46,1487.39 1206.5,1487.39"/>
<polyline class="LyricsLineSegment" fill="none" stroke="#000000" stroke-width="11.06" stroke-linejoin="bevel" points="949.763,1497.25 999.63,1497.25" />
<path class="NoteDot" transform="matrix(0.891429,0,0,0.891429,1185.91,1172.6)" d="M0,0 C0,5.07813 1.82813,9.48438 5.46875,13.2344 C9.10938,17 13.5156,18.8594 18.7031,18.8594 C23.8906,18.8594 28.2969,17 31.9375,13.2344 C35.5781,9.48438 37.4063,5.07813 37.4063,0 C37.4063,-5.07813 35.5781,-9.48438 31.9375,-13.2344 C28.2969,-16.9844 23.8906,-18.8594 18.7031,-18.8594 C13.5156,-18.8594 9.10938,-16.9844 5.46875,-13.2344 C1.82813,-9.48438 0,-5.07813 0,0"/>
<path class="NoteDot" transform="matrix(0.891429,0,0,0.891429,1185.91,1320)" d="M0,0 C0,5.07813 1.82813,9.48438 5.46875,13.2344 C9.10938,17 13.5156,18.8594 18.7031,18.8594 C23.8906,18.8594 28.2969,17 31.9375,13.2344 C35.5781,9.48438 37.4063,5.07813 37.4063,0 C37.4063,-5.07813 35.5781,-9.48438 31.9375,-13.2344 C28.2969,-16.9844 23.8906,-18.8594 18.7031,-18.8594 C13.5156,-18.8594 9.10938,-16.9844 5.46875,-13.2344 C1.82813,-9.48438 0,-5.07813 0,0"/>
<path class="NoteDot" transform="matrix(0.891429,0,0,0.891429,1185.91,2031.28)" d="M0,0 C0,5.07813 1.82813,9.48438 5.46875,13.2344 C9.10938,17 13.5156,18.8594 18.7031,18.8594 C23.8906,18.8594 28.2969,17 31.9375,13.2344 C35.5781,9.48438 37.4063,5.07813 37.4063,0 C37.4063,-5.07813 35.5781,-9.48438 31.9375,-13.2344 C28.2969,-16.9844 23.8906,-18.8594 18.7031,-18.8594 C13.5156,-18.8594 9.10938,-16.9844 5.46875,-13.2344 C1.82813,-9.48438 0,-5.07813 0,0"/>
<path class="NoteDot" transform="matrix(0.891429,0,0,0.891429,1185.91,1736.48)" d="M0,0 C0,5.07813 1.82813,9.48438 5.46875,13.2344 C9.10938,17 13.5156,18.8594 18.7031,18.8594 C23.8906,18.8594 28.2969,17 31.9375,13.2344 C35.5781,9.48438 37.4063,5.07813 37.4063,0 C37.4063,-5.07813 35.5781,-9.48438 31.9375,-13.2344 C28.2969,-16.9844 23.8906,-18.8594 18.7031,-18.8594 C13.5156,-18.8594 9.10938,-16.9844 5.46875,-13.2344 C1.82813,-9.48438 0,-5.07813 0,0"/>
<path class="Bracket" fill-rule="evenodd" d="M441.613,1372.51 C441.613,1285.52 382.316,1200.96 382.316,1117.62 C382.316,1075.64 398.488,1034.88 448.352,998.384 C449.025,997.928 449.362,997.168 449.362,996.711 C449.362,995.343 445.656,994.126 442.961,994.126 C441.613,994.126 439.255,994.278 437.57,995.343 C372.882,1042.18 351.319,1096.33 351.319,1151.08 C351.319,1239.28 414.66,1324.45 414.66,1409.01 C414.66,1450.98 398.488,1490.52 348.624,1527.02 L348.624,1528.24 L348.624,1529.46 C398.488,1565.96 414.66,1605.5 414.66,1647.47 C414.66,1732.03 351.319,1817.2 351.319,1905.41 C351.319,1960.16 372.882,2014.3 437.57,2061.14 C439.255,2062.2 441.613,2062.35 442.961,2062.35 C445.656,2062.35 449.362,2061.14 449.362,2059.77 C449.362,2059.31 449.025,2058.55 448.352,2058.1 C398.488,2021.6 382.316,1980.84 382.316,1938.86 C382.316,1855.52 441.613,1770.96 441.613,1683.97 C441.613,1628.61 420.05,1575.69 356.71,1528.24 C420.05,1480.79 441.613,1427.87 441.613,1372.51"/>
</svg>
